<svg xmlns="http://www.w3.org/2000/svg" viewBox="0 0 1200 900" role="img" aria-labelledby="title desc">
  <title id="title">Ticket Control app mockup</title>
  <desc id="desc">Mockup de una aplicación móvil de gestión de tickets e incidencias.</desc>
  <defs>
    <linearGradient id="bg" x1="0" x2="1" y1="0" y2="1">
      <stop offset="0" stop-color="#f8fbff"/>
      <stop offset="0.55" stop-color="#e7ecf7"/>
      <stop offset="1" stop-color="#cfc8d9"/>
    </linearGradient>
    <linearGradient id="phone" x1="0" x2="1" y1="0" y2="1">
      <stop offset="0" stop-color="#111827"/>
      <stop offset="1" stop-color="#020617"/>
    </linearGradient>
    <linearGradient id="blue" x1="0" x2="1" y1="0" y2="1">
      <stop offset="0" stop-color="#2563eb"/>
      <stop offset="1" stop-color="#0f4ca8"/>
    </linearGradient>
    <filter id="shadow" x="-20%" y="-20%" width="140%" height="140%">
      <feDropShadow dx="0" dy="26" stdDeviation="30" flood-color="#111827" flood-opacity="0.28"/>
    </filter>
  </defs>
  <rect width="1200" height="900" fill="url(#bg)"/>
  <circle cx="160" cy="780" r="170" fill="#1d4ed8" opacity="0.08"/>
  <circle cx="1040" cy="180" r="210" fill="#9333ea" opacity="0.09"/>
  <g filter="url(#shadow)" transform="translate(350 42) rotate(1.5 250 405)">
    <rect x="0" y="0" width="500" height="810" rx="82" fill="url(#phone)"/>
    <rect x="20" y="22" width="460" height="766" rx="66" fill="#f8fafc"/>
    <rect x="184" y="32" width="132" height="44" rx="24" fill="#020617"/>
    <text x="72" y="70" font-family="Inter, Arial, sans-serif" font-size="24" font-weight="700" fill="#0f172a">9:41</text>
    <g transform="translate(64 112)">
      <rect width="72" height="72" rx="16" fill="url(#blue)"/>
      <path d="M22 22h28v8a8 8 0 0 0 0 12v8H22v-8a8 8 0 0 0 0-12z" fill="none" stroke="#fff" stroke-width="4" stroke-linejoin="round"/>
      <text x="90" y="42" font-family="Inter, Arial, sans-serif" font-size="42" font-weight="800" fill="#0f172a">Ticket Control</text>
      <text x="92" y="67" font-family="Inter, Arial, sans-serif" font-size="18" fill="#64748b">Gestión de tickets e incidencias</text>
    </g>
    <g transform="translate(64 228)" font-family="Inter, Arial, sans-serif">
      <g><rect width="94" height="124" rx="14" fill="#fff" stroke="#e5e7eb"/><text x="47" y="68" text-anchor="middle" font-size="32" font-weight="800" fill="#0f172a">24</text><text x="47" y="95" text-anchor="middle" font-size="16" fill="#1d4ed8">Abiertos</text></g>
      <g transform="translate(110)"><rect width="94" height="124" rx="14" fill="#fff" stroke="#e5e7eb"/><text x="47" y="68" text-anchor="middle" font-size="32" font-weight="800" fill="#0f172a">12</text><text x="47" y="95" text-anchor="middle" font-size="16" fill="#d97706">En proceso</text></g>
      <g transform="translate(220)"><rect width="94" height="124" rx="14" fill="#fff" stroke="#e5e7eb"/><text x="47" y="68" text-anchor="middle" font-size="32" font-weight="800" fill="#0f172a">36</text><text x="47" y="95" text-anchor="middle" font-size="16" fill="#16a34a">Cerrados</text></g>
      <g transform="translate(330)"><rect width="94" height="124" rx="14" fill="#fff" stroke="#e5e7eb"/><text x="47" y="68" text-anchor="middle" font-size="32" font-weight="800" fill="#0f172a">72</text><text x="47" y="95" text-anchor="middle" font-size="16" fill="#475569">Total</text></g>
    </g>
    <text x="64" y="404" font-family="Inter, Arial, sans-serif" font-size="25" font-weight="800" fill="#0f172a">Tickets recientes</text>
    <g font-family="Inter, Arial, sans-serif" transform="translate(64 428)">
      <g><rect width="424" height="78" rx="16" fill="#fff" stroke="#e5e7eb"/><rect x="14" y="16" width="48" height="48" rx="12" fill="#eaf2ff"/><text x="82" y="31" font-size="17" font-weight="800" fill="#0f4ca8">#TK-1024</text><text x="82" y="55" font-size="17" font-weight="700" fill="#111827">Problema con la conexión Wi‑Fi</text><rect x="326" y="22" width="72" height="30" rx="12" fill="#dbeafe"/><text x="362" y="42" text-anchor="middle" font-size="14" fill="#1d4ed8">Abierto</text></g>
      <g transform="translate(0 94)"><rect width="424" height="78" rx="16" fill="#fff" stroke="#e5e7eb"/><rect x="14" y="16" width="48" height="48" rx="12" fill="#fff7ed"/><text x="82" y="31" font-size="17" font-weight="800" fill="#0f4ca8">#TK-1023</text><text x="82" y="55" font-size="17" font-weight="700" fill="#111827">Error en inicio de sesión</text><rect x="306" y="22" width="92" height="30" rx="12" fill="#fef3c7"/><text x="352" y="42" text-anchor="middle" font-size="14" fill="#d97706">En proceso</text></g>
      <g transform="translate(0 188)"><rect width="424" height="78" rx="16" fill="#fff" stroke="#e5e7eb"/><rect x="14" y="16" width="48" height="48" rx="12" fill="#dcfce7"/><text x="82" y="31" font-size="17" font-weight="800" fill="#0f4ca8">#TK-1022</text><text x="82" y="55" font-size="17" font-weight="700" fill="#111827">Impresora no responde</text><rect x="326" y="22" width="72" height="30" rx="12" fill="#dcfce7"/><text x="362" y="42" text-anchor="middle" font-size="14" fill="#16a34a">Cerrado</text></g>
      <g transform="translate(0 282)"><rect width="424" height="78" rx="16" fill="#fff" stroke="#e5e7eb"/><rect x="14" y="16" width="48" height="48" rx="12" fill="#eaf2ff"/><text x="82" y="31" font-size="17" font-weight="800" fill="#0f4ca8">#TK-1021</text><text x="82" y="55" font-size="17" font-weight="700" fill="#111827">Pantalla parpadea</text><rect x="326" y="22" width="72" height="30" rx="12" fill="#dbeafe"/><text x="362" y="42" text-anchor="middle" font-size="14" fill="#1d4ed8">Abierto</text></g>
    </g>
  </g>
</svg>
